<svg width="342" height="222" fill="none" xmlns="http://www.w3.org/2000/svg"><path d="M131 1H91m0 220h40M181 1h30a10.001 10.001 0 0110 10v30m0 90V91M1 91v40m40 90H11a10.002 10.002 0 01-10-10v-30M11 1l200 220" stroke="#16171A" stroke-width="2" stroke-linecap="round" stroke-linejoin="round"/><path opacity=".2" d="M275.545 23.7h-29.091m0 159.999h29.091m36.364-160h21.818A7.274 7.274 0 01341 30.972V52.79m0 65.455V89.154m-160 0v29.091m29.091 65.454h-21.818a7.273 7.273 0 01-7.273-7.273v-21.818m7.273-130.909l145.454 160" stroke="url(#paint0_linear_984_3589)" stroke-width="2" stroke-linecap="round" stroke-linejoin="round"/><defs><linearGradient id="paint0_linear_984_3589" x1="219.5" y1="183.699" x2="341" y2="183.699" gradientUnits="userSpaceOnUse"><stop stop-color="#111" stop-opacity="0"/><stop offset="1" stop-color="#111"/></linearGradient></defs></svg>