<svg width="40" height="44" fill="none" xmlns="http://www.w3.org/2000/svg"><path fill-rule="evenodd" clip-rule="evenodd" d="M13.333.692a1 1 0 011 1v1.885c1.693-.135 3.576-.192 5.667-.192 2.091 0 3.974.057 5.667.192V1.692a1 1 0 112 0v2.093c8.318 1.093 11.346 4.676 12.117 13.83a50.527 50.527 0 01.13 1.999c.06 1.264.086 2.621.086 4.078C40 40.416 36.47 44 20 44S0 40.416 0 23.692a86.7 86.7 0 01.087-4.078 59.336 59.336 0 01.13-1.999c.77-9.154 3.798-12.737 12.116-13.83V1.692a1 1 0 011-1zm-1 5.113C9.476 6.203 7.49 6.9 6.07 7.956c-2.14 1.593-3.377 4.332-3.846 9.66h35.553c-.47-5.328-1.707-8.067-3.847-9.66-1.42-1.056-3.406-1.753-6.263-2.151V8.46a1 1 0 11-2 0V5.586c-1.639-.137-3.515-.201-5.667-.201-2.152 0-4.028.064-5.667.2v2.876a1 1 0 11-2 0V5.805zM38 23.692c0-1.47-.028-2.826-.089-4.077H2.09A84.042 84.042 0 002 23.692c0 4.136.22 7.325.763 9.8.537 2.456 1.363 4.082 2.486 5.222C7.535 41.036 11.694 42 20 42s12.465-.964 14.751-3.286c1.123-1.14 1.95-2.767 2.486-5.221.542-2.476.763-5.665.763-9.8z" fill="#fff"/></svg>