<svg width="40" height="40" fill="none" xmlns="http://www.w3.org/2000/svg"><path d="M28.333 9.167C27.917 4.722 25 1.667 20 1.667s-7.917 3.055-8.334 7.5M1 24.167c0 6.522.91 10.015 3.444 12.022 1.291 1.022 3.096 1.735 5.656 2.186 2.56.45 5.8.625 9.9.625 4.1 0 7.34-.175 9.9-.625 2.56-.45 4.365-1.164 5.656-2.186C38.09 34.182 39 30.689 39 24.167c0-3.883-.32-6.716-1.137-8.802-.918-2.344-2.49-3.816-5.237-4.736C29.796 9.68 25.76 9.333 20 9.333s-9.796.347-12.626 1.296c-2.747.92-4.319 2.392-5.237 4.736C1.32 17.45 1 20.284 1 24.167z" stroke="#16171A" stroke-width="2" stroke-linecap="round" stroke-linejoin="round"/></svg>