<svg width="40" height="40" fill="none" xmlns="http://www.w3.org/2000/svg"><path fill-rule="evenodd" clip-rule="evenodd" d="M27.374 15.707a1 1 0 00-1.415-1.414l-7.626 7.626-3.46-3.46a1 1 0 10-1.414 1.415l4.167 4.166a1 1 0 001.414 0l8.334-8.333z" fill="#16171A"/><path d="M1 20c0 4.095.22 7.317.785 9.856.562 2.529 1.451 4.318 2.746 5.613 1.295 1.295 3.085 2.184 5.613 2.746 2.54.564 5.761.785 9.856.785s7.317-.22 9.856-.785c2.529-.562 4.318-1.451 5.613-2.746 1.295-1.295 2.184-3.084 2.746-5.613.564-2.54.785-5.761.785-9.856s-.22-7.317-.785-9.856c-.562-2.528-1.451-4.318-2.746-5.613-1.295-1.295-3.084-2.184-5.613-2.746C27.316 1.221 24.095 1 20 1s-7.317.22-9.856.785c-2.528.562-4.318 1.451-5.613 2.746-1.295 1.295-2.184 3.085-2.746 5.613C1.221 12.684 1 15.905 1 20z" stroke="#16171A" stroke-width="2" stroke-linecap="round" stroke-linejoin="round"/></svg>