<svg width="38" height="48" viewBox="0 0 38 48" fill="none" xmlns="http://www.w3.org/2000/svg">
<path d="M35.5847 10.2196C34.1946 7.4787 32.1377 5.13125 29.6031 3.39306C27.0686 1.65488 24.1378 0.581739 21.0801 0.2723C19.6969 0.133517 18.3033 0.133517 16.9201 0.2723C13.8625 0.581942 10.9317 1.65505 8.39713 3.39303C5.86251 5.13101 3.80533 7.47811 2.4146 10.2187C0.664848 13.7155 -0.0110079 17.6519 0.472156 21.5321C0.955319 25.4123 2.57589 29.0627 5.12976 32.0236L17.5834 47.1647C17.7554 47.374 17.9716 47.5425 18.2165 47.6582C18.4614 47.7739 18.7288 47.8339 18.9997 47.8339C19.2705 47.8339 19.538 47.7739 19.7828 47.6582C20.0277 47.5425 20.2439 47.374 20.4159 47.1647L32.8696 32.0236C35.4234 29.0629 37.044 25.4126 37.5271 21.5325C38.0103 17.6525 37.3344 13.7163 35.5847 10.2196ZM18.9997 25.8334C17.5493 25.8334 16.1314 25.4033 14.9255 24.5975C13.7195 23.7917 12.7796 22.6464 12.2245 21.3064C11.6695 19.9664 11.5243 18.4919 11.8072 17.0694C12.0902 15.6468 12.7886 14.3402 13.8142 13.3146C14.8398 12.289 16.1465 11.5906 17.569 11.3076C18.9915 11.0246 20.466 11.1699 21.806 11.7249C23.146 12.28 24.2913 13.2199 25.0971 14.4259C25.9029 15.6318 26.333 17.0496 26.333 18.5C26.3307 20.4443 25.5574 22.3082 24.1826 23.683C22.8078 25.0577 20.9439 25.8311 18.9997 25.8334Z" fill="#16171A"/>
</svg>
