<?xml version="1.0" encoding="utf-8"?><svg viewBox="0 0 32 32" xmlns="http://www.w3.org/2000/svg" xmlns:xlink="http://www.w3.org/1999/xlink"><style>:root>svg{display:none}:root>svg:target{display:block}</style><svg fill="none" viewBox="0 0 32 32" id="arrow" xmlns="http://www.w3.org/2000/svg"><path d="M5 15H4v2h1v-2zm22 2a1 1 0 1 0 0-2v2zM5 17h22v-2H5v2z" fill="#16171A"/><path d="m18 7 9 9-9 9" stroke="#16171A" stroke-width="2" stroke-linecap="square" stroke-linejoin="round"/></svg><svg fill="none" viewBox="0 0 24 24" id="arrow-left" xmlns="http://www.w3.org/2000/svg"><g clip-path="url(#aa)"><path d="M14.406 17.5 9.595 12l4.811-5.5" stroke="#16171A" stroke-width="1.5" stroke-linecap="round" stroke-linejoin="round"/></g><defs><clipPath id="aa"><path fill="#fff" transform="rotate(-90 12 12)" d="M0 0h24v24H0z"/></clipPath></defs></svg><svg fill="none" viewBox="0 0 24 24" id="arrow-link" xmlns="http://www.w3.org/2000/svg"><g clip-path="url(#ba)"><path d="M14.41 6.5 9.6 12l4.811 5.5" stroke="#95989B" stroke-linecap="round" stroke-linejoin="round"/></g><defs><clipPath id="ba"><path fill="#fff" transform="matrix(0 1 1 0 0 0)" d="M0 0h24v24H0z"/></clipPath></defs></svg><svg fill="none" viewBox="0 0 24 24" id="arrow-right" xmlns="http://www.w3.org/2000/svg"><g clip-path="url(#ca)"><path d="m9.594 6.5 4.811 5.5-4.811 5.5" stroke="#16171A" stroke-width="1.5" stroke-linecap="round" stroke-linejoin="round"/></g><defs><clipPath id="ca"><path fill="#fff" transform="rotate(90 12 12)" d="M0 0h24v24H0z"/></clipPath></defs></svg><svg fill="none" viewBox="0 0 24 24" id="qwe" xmlns="http://www.w3.org/2000/svg"><path d="M3.75 11.25H3v1.5h.75v-1.5zm16.5 1.5a.75.75 0 0 0 0-1.5v1.5zm-16.5 0h16.5v-1.5H3.75v1.5z" fill="#fff"/><path d="M13.5 5.25 20.25 12l-6.75 6.75" stroke="#fff" stroke-width="1.5" stroke-linecap="square" stroke-linejoin="round"/></svg></svg>