<?xml version="1.0" encoding="utf-8"?><svg viewBox="0 0 38 48" xmlns="http://www.w3.org/2000/svg" xmlns:xlink="http://www.w3.org/1999/xlink"><style>:root>svg{display:none}:root>svg:target{display:block}</style><svg fill="none" viewBox="0 0 20 20" id="ArrowLeft" xmlns="http://www.w3.org/2000/svg"><path d="M3.398 9.25h-.75v1.5h.75v-1.5zm13.2 1.5a.75.75 0 1 0 0-1.5v1.5zm-13.2 0h13.2v-1.5h-13.2v1.5z" fill="#16171A"/><path d="m11.198 4.6 5.4 5.4-5.4 5.4" stroke="#16171A" stroke-width="1.5" stroke-linecap="square" stroke-linejoin="round"/></svg><svg fill="none" viewBox="0 0 20 20" id="ArrowRight" xmlns="http://www.w3.org/2000/svg"><path d="M16.602 10.75h.75v-1.5h-.75v1.5zm-13.2-1.5a.75.75 0 0 0 0 1.5v-1.5zm13.2 0h-13.2v1.5h13.2v-1.5z" fill="#16171A"/><path d="m8.802 15.4-5.4-5.4 5.4-5.4" stroke="#16171A" stroke-width="1.5" stroke-linecap="square" stroke-linejoin="round"/></svg><svg fill="none" viewBox="0 0 32 32" id="arrow" xmlns="http://www.w3.org/2000/svg"><path d="M5 16h22m0 0-9-9m9 9-9 9" stroke="#16171A" stroke-width="2" stroke-linecap="square" stroke-linejoin="round"/></svg><svg fill="none" viewBox="0 0 20 20" id="arrow-down" xmlns="http://www.w3.org/2000/svg"><path d="m4 7 6.5 6.5L17 7" stroke="#16171A" stroke-width="2"/></svg><svg fill="none" viewBox="0 0 24 24" id="arrow-left" xmlns="http://www.w3.org/2000/svg"><g clip-path="url(#ba)"><path d="M14.406 17.5 9.595 12l4.811-5.5" stroke="#16171A" stroke-width="1.5" stroke-linecap="round" stroke-linejoin="round"/></g><defs><clipPath id="ba"><path fill="#fff" transform="rotate(-90 12 12)" d="M0 0h24v24H0z"/></clipPath></defs></svg><svg fill="none" viewBox="0 0 24 24" id="arrow-link" xmlns="http://www.w3.org/2000/svg"><g clip-path="url(#ca)"><path d="M14.41 6.5 9.6 12l4.811 5.5" stroke="#95989B" stroke-linecap="round" stroke-linejoin="round"/></g><defs><clipPath id="ca"><path fill="#fff" transform="matrix(0 1 1 0 0 0)" d="M0 0h24v24H0z"/></clipPath></defs></svg><svg fill="none" viewBox="0 0 24 24" id="arrow-right" xmlns="http://www.w3.org/2000/svg"><g clip-path="url(#da)"><path d="m9.594 6.5 4.811 5.5-4.811 5.5" stroke="#16171A" stroke-width="1.5" stroke-linecap="round" stroke-linejoin="round"/></g><defs><clipPath id="da"><path fill="#fff" transform="rotate(90 12 12)" d="M0 0h24v24H0z"/></clipPath></defs></svg><svg fill="none" viewBox="0 0 30 30" id="burger" xmlns="http://www.w3.org/2000/svg"><g clip-path="url(#ha)" stroke="#16171A" stroke-width="1.5"><path d="M0 11.5h30m-30 7h30"/></g><defs><clipPath id="ha"><path fill="#fff" d="M0 0h30v30H0z"/></clipPath></defs></svg><svg class="iicon-file" fill="none" viewBox="0 0 18 20" id="clip" xmlns="http://www.w3.org/2000/svg"><path d="M17.75 5.625c0 1.336-.52 2.591-1.465 3.536L7.28 18.274a3.744 3.744 0 0 1-2.656 1.098c-.96 0-1.92-.365-2.65-1.096a3.755 3.755 0 0 1 0-5.303l6.506-6.47c.977-.97 2.53-1.002 3.463-.07.455.456.695 1.07.676 1.733a2.544 2.544 0 0 1-.752 1.726L5.69 16.067a.624.624 0 1 1-.883-.884l6.174-6.174c.24-.24.377-.552.386-.88a1.088 1.088 0 0 0-.31-.812c-.447-.445-1.208-.413-1.697.073l-6.506 6.468a2.503 2.503 0 0 0 .001 3.534 2.503 2.503 0 0 0 3.536 0l9.006-9.113A3.727 3.727 0 0 0 16.5 5.625c0-1.002-.39-1.943-1.098-2.651a3.725 3.725 0 0 0-2.652-1.099c-1.002 0-1.944.39-2.652 1.099l-8.783 8.72a.624.624 0 1 1-.88-.888l8.78-8.718A4.964 4.964 0 0 1 12.75.625c1.335 0 2.59.52 3.535 1.465a4.965 4.965 0 0 1 1.465 3.535z" fill="currentColor"/></svg><svg fill="none" viewBox="0 0 30 30" id="close" xmlns="http://www.w3.org/2000/svg"><path d="M4.389 25.503 25.602 4.29m-21.213.213 21.213 21.213" stroke="#16171A" stroke-width="1.5"/></svg><svg fill="none" viewBox="0 0 38 48" id="pin" xmlns="http://www.w3.org/2000/svg"><path d="M35.585 10.22A18.332 18.332 0 0 0 21.08.272a20.835 20.835 0 0 0-4.16 0A18.338 18.338 0 0 0 2.415 10.22 19.811 19.811 0 0 0 5.13 32.024l12.453 15.14a1.833 1.833 0 0 0 2.833 0l12.454-15.14a19.81 19.81 0 0 0 2.715-21.804zM19 25.833a7.333 7.333 0 1 1 7.333-7.333A7.342 7.342 0 0 1 19 25.833z" fill="#16171A"/></svg><svg fill="none" viewBox="0 0 24 24" id="qwe" xmlns="http://www.w3.org/2000/svg"><path d="M3.75 11.25H3v1.5h.75v-1.5zm16.5 1.5a.75.75 0 0 0 0-1.5v1.5zm-16.5 0h16.5v-1.5H3.75v1.5z" fill="#fff"/><path d="M13.5 5.25 20.25 12l-6.75 6.75" stroke="#fff" stroke-width="1.5" stroke-linecap="square" stroke-linejoin="round"/></svg><svg fill="none" viewBox="0 0 20 20" id="route" xmlns="http://www.w3.org/2000/svg"><path d="M15.625 17.5a1.875 1.875 0 1 0 0-3.75 1.875 1.875 0 0 0 0 3.75z" stroke="currentColor" stroke-width="1.5" stroke-linecap="round" stroke-linejoin="round"/><path d="M5.625 4.375h7.5a2.5 2.5 0 0 1 0 5h-7.5a3.125 3.125 0 1 0 0 6.25h8.125" stroke="currentColor" stroke-width="1.5" stroke-linecap="round" stroke-linejoin="round"/></svg></svg>