<svg width="24" height="24" fill="none" xmlns="http://www.w3.org/2000/svg"><g clip-path="url(#clip0_1624_9638)" fill="#16171A"><path d="M20.484 0H3.516A3.52 3.52 0 000 3.516v16.968A3.52 3.52 0 003.516 24h16.968A3.52 3.52 0 0024 20.484V3.516A3.52 3.52 0 0020.484 0zm-8.437 18.281a6.335 6.335 0 01-6.328-6.328 6.335 6.335 0 016.328-6.328 6.335 6.335 0 016.328 6.328 6.335 6.335 0 01-6.328 6.328zm7.031-11.25a2.112 2.112 0 01-2.11-2.11c0-1.162.947-2.109 2.11-2.109 1.163 0 2.11.947 2.11 2.11 0 1.163-.947 2.11-2.11 2.11z"/><path d="M19.078 4.219a.704.704 0 100 1.407.704.704 0 000-1.407zm-7.031 2.812a4.928 4.928 0 00-4.922 4.922 4.928 4.928 0 004.922 4.922 4.928 4.928 0 004.922-4.922 4.928 4.928 0 00-4.922-4.922z"/></g><defs><clipPath id="clip0_1624_9638"><path fill="#fff" d="M0 0h24v24H0z"/></clipPath></defs></svg>