<svg width="48" height="38" fill="none" xmlns="http://www.w3.org/2000/svg"><path fill-rule="evenodd" clip-rule="evenodd" d="M37.415 5.904C31.383 2.678 27.725.9 24 .9c-3.725 0-7.383 1.778-13.415 5.004l-.059.031C7.53 7.537 5.212 8.777 3.648 9.822c-.787.526-1.442 1.041-1.908 1.57-.469.533-.82 1.167-.82 1.908v15.2a1 1 0 102 0V16.264c.227.17.47.342.728.514 1.073.717 2.501 1.526 4.26 2.48-.229 1.635-.228 3.898-.228 7.026v.316c0 9.5 2.869 11.4 16.254 11.4C36.48 38 40.32 36.1 40.32 26.6c0-3.285 0-5.643-.247-7.331 1.767-.96 3.202-1.771 4.279-2.491.787-.526 1.442-1.041 1.908-1.57.468-.533.82-1.167.82-1.908 0-.741-.352-1.375-.82-1.908-.466-.529-1.121-1.044-1.908-1.57-1.564-1.045-3.882-2.285-6.878-3.887l-.059-.031zm.765 14.383l-.706.378-.059.031C31.383 23.922 27.725 25.7 24 25.7c-3.725 0-7.383-1.778-13.415-5.004l-.059-.031-.72-.386c-.126 1.442-.126 3.405-.126 6.19v.131c0 4.71.756 6.582 2.25 7.62.839.584 2.11 1.053 4.117 1.357 2 .304 4.569.423 7.887.423 3.103 0 5.576-.119 7.55-.422 1.978-.304 3.319-.775 4.249-1.387 1.654-1.087 2.587-3.027 2.587-7.591 0-2.853-.004-4.853-.14-6.313zm-34.938-6.4c-.293-.333-.322-.514-.322-.587 0-.073.03-.254.322-.586.295-.336.782-.737 1.518-1.229 1.471-.984 3.702-2.178 6.768-3.817C17.678 4.379 20.872 2.9 24 2.9s6.322 1.479 12.472 4.768c3.066 1.64 5.297 2.833 6.768 3.817.736.492 1.223.893 1.518 1.229.293.332.322.513.322.586 0 .073-.03.254-.322.586-.295.336-.782.737-1.518 1.23-1.471.983-3.702 2.177-6.768 3.817C30.322 22.22 27.128 23.7 24 23.7s-6.322-1.479-12.472-4.767c-3.066-1.64-5.297-2.834-6.768-3.818-.736-.492-1.223-.893-1.518-1.229z" fill="#16171A"/></svg>