<svg width="40" height="40" fill="none" xmlns="http://www.w3.org/2000/svg"><path d="M1 16.667c0 6.875.912 10.585 3.464 12.712 1.29 1.075 3.091 1.824 5.645 2.297 2.556.473 5.792.657 9.891.657s7.335-.184 9.891-.657c2.554-.473 4.355-1.222 5.645-2.297C38.088 27.252 39 23.542 39 16.667S38.088 6.08 35.536 3.955c-1.29-1.076-3.091-1.825-5.645-2.298C27.335 1.184 24.1 1 20 1s-7.335.184-9.891.657C7.555 2.13 5.754 2.88 4.464 3.955 1.912 6.08 1 9.792 1 16.667zm19 16.666v5h-6.666 13.333" stroke="#16171A" stroke-width="2" stroke-linecap="round" stroke-linejoin="round"/></svg>