<svg width="24" height="24" fill="none" xmlns="http://www.w3.org/2000/svg"><g clip-path="url(#clip0_1624_9636)"><path d="M20.484 0H3.516A3.52 3.52 0 000 3.516v16.968A3.52 3.52 0 003.516 24h16.968A3.52 3.52 0 0024 20.484V3.516A3.52 3.52 0 0020.484 0zm-12 19.031H5.672V9.188h2.812v9.843zm0-11.25H5.672V4.97h2.812v2.81zm9.844 11.25h-2.812v-5.625c0-.775-.631-1.406-1.407-1.406-.775 0-1.406.631-1.406 1.406v5.625H9.891V9.188h2.812v.53c.737-.23 1.216-.53 2.11-.53 1.907.002 3.515 1.713 3.515 3.735v6.108z" fill="#16171A"/></g><defs><clipPath id="clip0_1624_9636"><path fill="#fff" d="M0 0h24v24H0z"/></clipPath></defs></svg>